<svg width="32" height="32" viewBox="0 0 32 33" fill="#1A1A1A" xmlns="http://www.w3.org/2000/svg" aria-hidden="true">
                <path fill-rule="evenodd" clip-rule="evenodd" d="M32 16.3203C32 25.1569 24.8366 32.3203 16 32.3203C7.16344 32.3203 0 25.1569 0 16.3203C0 7.48376 7.16344 0.320312 16 0.320312C24.8366 0.320312 32 7.48376 32 16.3203ZM23.97 13.0424C23.9242 12.1713 23.7869 11.6212 23.6039 11.1169C23.4208 10.5667 23.1463 10.1541 22.6887 9.69567C22.2311 9.23722 21.8193 8.96215 21.2702 8.77877C20.7668 8.59538 20.1719 8.45785 19.3483 8.412C18.4331 8.32031 18.2043 8.32031 16.0079 8.32031C13.8114 8.32031 13.5826 8.32031 12.7132 8.36616C11.8438 8.412 11.2947 8.54954 10.7456 8.73292C10.1964 8.9163 9.78461 9.19137 9.32702 9.64983C8.86942 10.1083 8.59487 10.5209 8.41183 11.071C8.2288 11.5753 8.09152 12.1713 8.04576 12.9965C8 13.9134 8 14.1427 8 16.3432C8 18.5438 8 18.773 8.04576 19.6441C8.09152 20.5152 8.2288 21.0653 8.41183 21.5696C8.59487 22.1198 8.86942 22.5324 9.32702 22.9908C9.78461 23.4493 10.1964 23.7243 10.7456 23.9077C11.2489 24.0911 11.8438 24.2286 12.6674 24.2745C13.5369 24.3203 13.8114 24.3203 15.9618 24.3203H15.9621H15.9624C18.1585 24.3203 18.3873 24.3203 19.2568 24.2745C20.1262 24.2286 20.6753 24.0911 21.1786 23.9077C21.7278 23.7243 22.1396 23.4493 22.5972 22.9908C23.0548 22.5324 23.3293 22.1198 23.5124 21.5696C23.6954 21.0653 23.8327 20.4693 23.8784 19.6441C23.9242 18.773 23.9242 18.498 23.9242 16.3432C24.0157 14.1427 24.0157 13.9134 23.97 13.0424ZM20.1246 16.3203C20.1246 18.5979 18.2783 20.4442 16.0008 20.4442C13.7232 20.4442 11.877 18.5979 11.877 16.3203C11.877 14.0428 13.7232 12.1965 16.0008 12.1965C18.2783 12.1965 20.1246 14.0428 20.1246 16.3203ZM20.2628 13.033C20.8028 13.033 21.2405 12.5953 21.2405 12.0553C21.2405 11.5154 20.8028 11.0776 20.2628 11.0776C19.7229 11.0776 19.2852 11.5154 19.2852 12.0553C19.2852 12.5953 19.7229 13.033 20.2628 13.033ZM18.656 16.3203C18.656 17.7869 17.4671 18.9759 16.0005 18.9759C14.5338 18.9759 13.3449 17.7869 13.3449 16.3203C13.3449 14.8537 14.5338 13.6648 16.0005 13.6648C17.4671 13.6648 18.656 14.8537 18.656 16.3203Z"></path>
            </svg>