<svg width="32" height="32" viewBox="0 0 32 33" fill="#1A1A1A" xmlns="http://www.w3.org/2000/svg" aria-hidden="true">
                <path fill-rule="evenodd" clip-rule="evenodd" d="M32 16.3203C32 25.1569 24.8366 32.3203 16 32.3203C7.16344 32.3203 0 25.1569 0 16.3203C0 7.48376 7.16344 0.320312 16 0.320312C24.8366 0.320312 32 7.48376 32 16.3203ZM17.1868 24.3203V17.006H19.5604L19.9121 14.1717H17.1868V12.3432C17.1868 11.5203 17.4066 10.9717 18.5494 10.9717H20V8.41174C19.9109 8.41174 19.7568 8.40132 19.5528 8.38752L19.5519 8.38746C19.1515 8.36037 18.5593 8.32031 17.8901 8.32031C15.7802 8.32031 14.3736 9.64603 14.3736 12.0689V14.1717H12V17.006H14.3736V24.3203H17.1868Z"></path>
            </svg>