<svg xmlns="http://www.w3.org/2000/svg" width="32" height="32" viewBox="0 0 32 32" fill="#1A1A1A" aria-hidden="true">
                <g clip-path="url(#clip0_4358_4085)">
                    <path fill-rule="evenodd" clip-rule="evenodd" d="M16 32C24.8366 32 32 24.8366 32 16C32 7.16344 24.8366 0 16 0C7.16344 0 0 7.16344 0 16C0 24.8366 7.16344 32 16 32ZM19.5 7L19.59 6.78C19.81 7.94 20.52 8.94 21.5 9.57C22.18 10 23 10.26 23.87 10.26V10.94V13.32C22.25 13.32 20.75 12.81 19.52 11.95V18.16C19.52 21.26 16.94 23.79 13.76 23.79C12.53 23.79 11.4 23.41 10.46 22.77C8.98 21.75 8 20.07 8 18.16C8 15.06 10.58 12.53 13.76 12.53C14.02 12.53 14.28 12.55 14.54 12.58V13.3V15.7C14.29 15.62 14.03 15.58 13.76 15.58C12.31 15.58 11.13 16.73 11.13 18.15C11.13 19.14 11.7 19.99 12.54 20.42C12.9 20.61 13.32 20.72 13.76 20.72C15.18 20.72 16.33 19.62 16.38 18.25V6H19.51C19.51 6.26 19.54 6.52 19.58 6.78L19.5 7Z"></path>
                </g>
                <defs>
                    <clipPath id="clip0_4358_4085">
                        <rect width="32" height="32" rx="16" fill="white"></rect>
                    </clipPath>
                </defs>
            </svg>