<svg width="32" height="32" viewBox="0 0 32 33" fill="#1A1A1A" xmlns="http://www.w3.org/2000/svg" aria-hidden="true">
                <path fill-rule="evenodd" clip-rule="evenodd" d="M32 16.3203C32 25.1569 24.8366 32.3203 16 32.3203C7.16344 32.3203 0 25.1569 0 16.3203C0 7.48376 7.16344 0.320312 16 0.320312C24.8366 0.320312 32 7.48376 32 16.3203ZM23.2136 11.8416C23.7177 12.3364 23.8552 13.4159 23.8552 13.4159C23.8552 13.4159 24.0385 14.6753 23.9926 15.9798V17.1942C23.9926 18.4986 23.8552 19.7581 23.8552 19.7581C23.8552 19.7581 23.6719 20.8376 23.2136 21.3324C22.6878 21.8882 22.0906 21.9534 21.737 21.992L21.737 21.992C21.6901 21.9971 21.6474 22.0018 21.6098 22.0071C19.3644 22.187 16.0192 22.187 16.0192 22.187C16.0192 22.187 11.8492 22.142 10.5662 22.0071C10.4868 21.9876 10.3859 21.9744 10.2706 21.9594C9.85314 21.905 9.24575 21.8257 8.77901 21.3324C8.27495 20.8376 8.13747 19.7581 8.13747 19.7581C8.13747 19.7581 8 18.4536 8 17.1942V15.9798C8 14.6753 8.13747 13.4159 8.13747 13.4159C8.13747 13.4159 8.32077 12.3364 8.77901 11.8416C9.34484 11.2862 9.9464 11.2206 10.3006 11.182C10.3479 11.1769 10.3909 11.1722 10.4287 11.1669C12.6741 10.987 16.0192 10.987 16.0192 10.987C16.0192 10.987 19.3644 10.987 21.6098 11.1669C21.6438 11.1717 21.6819 11.1759 21.7235 11.1805L21.737 11.182C22.0905 11.2205 22.6878 11.2857 23.2136 11.8416ZM18.7229 16.3846L14.3696 14.1806V18.5886L18.7229 16.3846Z"></path>
            </svg>