<svg xmlns="http://www.w3.org/2000/svg" width="32" height="32" viewBox="0 0 32 32" fill="#1A1A1A" aria-hidden="true">
                <path fill-rule="evenodd" clip-rule="evenodd" d="M16 32C24.8366 32 32 24.8366 32 16C32 7.16344 24.8366 0 16 0C7.16344 0 0 7.16344 0 16C0 24.8366 7.16344 32 16 32ZM22.5437 9L17.3319 15.0583L23 23.3076H18.8312L15.0141 17.7525L10.2351 23.3076H9L14.4657 16.9546L9 9H13.1688L16.7833 14.2603L21.3087 9H22.5437ZM15.0865 16.2326L15.6403 17.0247L19.4122 22.4202H21.3093L16.6869 15.8084L16.1331 15.0163L12.5772 9.92977H10.6801L15.0865 16.2326Z"></path>
            </svg>