<svg width="30" height="30" viewBox="0 0 30 30" fill="none" xmlns="http://www.w3.org/2000/svg">
<path d="M25.125 10.3125C25.125 4.61719 20.5078 0 14.8125 0C9.11719 0 4.5 4.61719 4.5 10.3125C4.5 15.6914 8.61973 20.1035 13.875 20.5781V23.4375H10.125C9.60938 23.4375 9.1875 23.8594 9.1875 24.375C9.1875 24.8906 9.6068 25.3125 10.125 25.3125H13.875V29.0625C13.875 29.5807 14.2943 30 14.8125 30C15.3307 30 15.75 29.5807 15.75 29.0625V25.3125H19.5C20.0182 25.3125 20.4375 24.8932 20.4375 24.375C20.4375 23.8568 20.0182 23.4375 19.5 23.4375H15.75V20.5775C21.0059 20.1035 25.125 15.6914 25.125 10.3125ZM6.375 10.3125C6.375 5.66016 10.1602 1.875 14.8125 1.875C19.4648 1.875 23.25 5.66016 23.25 10.3125C23.25 14.9648 19.4648 18.75 14.8125 18.75C10.1602 18.75 6.375 14.9648 6.375 10.3125Z" fill="#017080"/>
</svg>
