<svg width="30" height="30" viewBox="0 0 30 30" fill="none" xmlns="http://www.w3.org/2000/svg">
<path d="M15 28.125C22.248 28.125 28.125 22.248 28.125 15C28.125 13.0605 27.7031 11.2207 26.9004 9.56836C26.7363 9.09961 26.9473 8.54297 27.416 8.32617C27.8379 8.11523 28.4473 8.32031 28.6582 8.79492C29.5195 10.6875 30 12.7852 30 15C30 23.2852 23.2852 30 15 30C6.71484 30 0 23.2852 0 15C0 6.71484 6.71484 0 15 0C17.2148 0 19.3125 0.479414 21.2051 1.34062C21.627 1.55508 21.8848 2.11113 21.6738 2.58223C21.457 3.05391 20.9004 3.26191 20.4316 3.04746C18.7793 2.29453 16.9395 1.82227 15 1.82227C7.75195 1.82227 1.875 7.75195 1.875 14.9473C1.875 22.248 7.75195 28.125 15 28.125ZM18.2812 22.5C18.2812 24.3105 16.8105 25.7812 15 25.7812C13.1895 25.7812 11.7187 24.3105 11.7187 22.5C11.7187 20.6895 13.1895 19.2188 15 19.2188C16.8105 19.2188 18.2812 20.6895 18.2812 22.5ZM15 21.0938C14.2207 21.0938 13.5937 21.7207 13.5937 22.5C13.5937 23.2793 14.2207 23.9062 15 23.9062C15.7793 23.9062 16.4062 23.2793 16.4062 22.5C16.4062 21.7207 15.7793 21.0938 15 21.0938ZM18.75 7.5C18.2344 7.5 17.8125 7.07812 17.8125 6.5625C17.8125 6.04688 18.2344 5.625 18.75 5.625H22.5C22.8809 5.625 23.2207 5.85352 23.3672 6.20508C23.5137 6.55664 23.4316 6.95508 23.1621 7.22461L21.0117 9.375H22.5C23.0156 9.375 23.4375 9.79688 23.4375 10.3125C23.4375 10.8281 23.0156 11.25 22.5 11.25H18.75C18.3691 11.25 18.0293 11.0215 17.8828 10.6699C17.7363 10.3184 17.8184 9.91992 18.0879 9.65039L20.2383 7.5H18.75ZM25.3125 0H29.0625C29.4434 0 29.7832 0.228398 29.9297 0.57873C30.0762 0.929297 29.9941 1.33242 29.7246 1.6002L27.5742 3.75H29.0625C29.5781 3.75 30 4.16953 30 4.6875C30 5.20547 29.5781 5.625 29.0625 5.625H25.3125C24.9316 5.625 24.5918 5.39648 24.4453 5.04609C24.2988 4.6957 24.3809 4.29258 24.6504 4.02481L26.8008 1.875H25.3125C24.7969 1.875 24.375 1.45547 24.375 0.9375C24.375 0.419766 24.7969 0 25.3125 0ZM24 13.7812C24.416 14.0918 24.498 14.6777 24.1875 15.0938C22.4062 17.4668 18.8438 17.4668 17.0625 15.0938C16.752 14.6777 16.834 14.0918 17.25 13.7812C17.666 13.4707 18.252 13.5527 18.5625 13.9688C19.5937 15.3457 21.6562 15.3457 22.6875 13.9688C22.998 13.5527 23.584 13.4707 24 13.7812ZM7.3125 13.9688C8.34375 15.3457 10.4062 15.3457 11.4375 13.9688C11.748 13.5527 12.334 13.4707 12.75 13.7812C13.166 14.0918 13.248 14.6777 12.9375 15.0938C11.1562 17.4668 7.59375 17.4668 5.8125 15.0938C5.50195 14.6777 5.58574 14.0918 6 13.7812C6.41602 13.4707 7.00195 13.5527 7.3125 13.9688Z" fill="#017080"/>
</svg>
