<svg width="30" height="30" viewBox="0 0 30 30" fill="none" xmlns="http://www.w3.org/2000/svg">
<g clip-path="url(#clip0_705_16566)">
<path d="M29.836 16.1133C28.6055 13.3518 26.9942 7.21875 25.5516 5.16797C23.2969 1.96992 19.5996 0 15.5918 0H11.7246C5.60159 0 0.24612 4.69512 0.0117445 10.8105C-0.123666 14.3203 1.3553 17.4668 3.75003 19.623L3.69729 29.0625C3.69729 29.5807 4.11659 30 4.63479 30C5.15288 30 5.51956 29.5807 5.51956 29.0625L5.52013 18.7793L5.00276 18.2227C2.91565 16.3477 1.77307 13.674 1.88323 10.8809C2.07366 5.91797 6.4805 1.875 11.666 1.875H15.5403C18.8871 1.875 22.0383 3.50859 23.9719 6.24785C24.7043 7.29551 25.6184 10.159 26.4545 12.4646C27.0762 14.1504 27.6153 15.7324 28.0723 16.875H25.3125C24.7948 16.875 24.375 17.2946 24.375 17.8125V22.5C24.375 23.5312 23.5313 24.375 22.5 24.375H17.8131C17.2954 24.375 16.8756 24.792 16.8756 25.3096L16.8223 29.0625C16.8223 29.5807 17.2416 30 17.7071 30C18.2253 30 18.6446 29.5807 18.6446 29.0625L18.6457 26.25H22.3952C24.4659 26.25 26.0924 24.5707 26.0924 22.5527V18.75H27.9147C29.4785 18.75 30.3867 17.3496 29.836 16.1133ZM19.2188 13.125C21.0293 13.125 22.5 11.6543 22.5 9.84375C22.5 8.07129 21.0873 6.62285 19.3295 6.56426C18.6821 5.17734 17.0719 4.33301 15.5303 4.82461C14.3092 3.46992 11.9414 3.46992 10.7203 4.82461C8.99885 4.27436 7.22639 5.36297 6.73069 7.04473C5.06135 7.19531 3.75003 8.60742 3.75003 10.3125C3.75003 11.6145 4.51526 12.7412 5.6801 13.258C5.96487 14.7832 7.30081 15.9375 8.90628 15.9375H9.37503V17.8125C9.37503 18.3281 9.7969 18.75 10.3125 18.75C10.8282 18.75 11.25 18.3281 11.25 17.8125V15C11.25 14.4818 10.8307 14.0625 10.3125 14.0625H8.90628C8.15745 14.0625 7.5428 13.4736 7.50178 12.7348C7.51174 12.6855 7.5176 12.6328 7.5176 12.5918C7.53042 12.1359 7.21362 11.7369 6.76585 11.6461C6.09378 11.5137 5.62503 10.9629 5.62503 10.3125C5.62503 9.53789 6.22561 8.90098 7.12385 8.93379C7.13942 8.93836 7.30327 8.97957 7.31979 8.98323C7.6055 9.04688 7.90432 8.9707 8.12698 8.7832C8.34964 8.5957 8.47268 8.30859 8.4551 8.01562C8.45327 7.98083 8.44687 7.93412 8.43771 7.88742C8.47854 7.14844 9.09378 6.5625 9.84378 6.5625C10.0617 6.5625 10.2869 6.6385 10.5516 6.80145C10.7754 6.9375 11.0449 6.97852 11.3028 6.90234C11.5554 6.83004 11.7669 6.65426 11.8841 6.41895C12.3712 5.4375 13.8816 5.4375 14.3691 6.41895C14.4863 6.65426 14.6977 6.83004 14.9505 6.90234C15.2059 6.97652 15.476 6.93622 15.7005 6.7998C15.961 6.63867 16.1895 6.5625 16.4063 6.5625C17.0772 6.5625 17.6438 7.06787 17.7528 7.76484C17.7958 8.03859 17.9578 8.27848 18.195 8.42227C18.4321 8.56512 18.7214 8.59711 18.9825 8.50652C19.1074 8.44922 19.2246 8.4375 19.2188 8.4375C19.9981 8.4375 20.625 9.07031 20.625 9.84375C20.625 10.6172 19.9922 11.25 19.2188 11.25H16.7807C16.4978 11.25 16.2304 11.3773 16.053 11.597C15.8744 11.8158 15.8049 12.1042 15.8635 12.381C15.8672 12.3984 15.9317 12.6387 15.9375 12.6562C15.9375 13.4314 15.3065 14.0625 14.5313 14.0625C14.0131 14.0625 13.5938 14.4818 13.5938 15C13.5938 15.5182 14.0131 15.9375 14.5313 15.9375C16.1813 15.9375 17.5506 14.7135 17.7797 13.125H19.2188Z" fill="#017080"/>
</g>
<defs>
<clipPath id="clip0_705_16566">
<rect width="30" height="30" fill="white"/>
</clipPath>
</defs>
</svg>
