<svg width="30" height="27" viewBox="0 0 30 27" fill="none" xmlns="http://www.w3.org/2000/svg">
<path d="M27.4685 3.10793C24.8254 0.511721 21.9771 0.5 21.2328 0.5C20.4886 0.5 17.6286 0.511721 15.0031 3.10207C12.3834 0.517582 9.52343 0.5 8.77327 0.5C8.02898 0.5 5.17488 0.511721 2.53763 3.10793C0.902528 4.71957 0 6.87038 0 9.1677C0 11.172 0.72085 13.0415 1.98087 14.5652H9.06044L10.8128 10.3574L14.1474 17.7651C14.4697 18.4859 15.4895 18.5094 15.8411 17.8002L18.7538 11.9749L20.049 14.5652H28.0194C29.2794 13.0415 30.0003 11.172 30.0003 9.1677C30.0061 6.87038 29.1036 4.71957 27.4685 3.10793ZM27.1051 12.6899H21.2094L19.5919 9.45487C19.2461 8.76333 18.2615 8.76333 17.9158 9.45487L15.0499 15.1923L11.6391 7.61466C11.2992 6.86452 10.2326 6.8821 9.91608 7.63811L7.81214 12.6899H2.90098C2.36181 11.8342 0.404379 7.84323 3.97347 4.32692C5.29796 3.02588 7.03268 2.37536 8.77327 2.37536C10.76 2.37536 11.9673 2.74458 15.0031 5.73344C18.2264 2.55704 19.3692 2.37536 21.2328 2.37536C22.9734 2.37536 24.7082 3.02588 26.0268 4.32692C29.6017 7.84909 27.6384 11.8401 27.1051 12.6899ZM15.7474 24.6102C15.384 24.9676 14.7979 24.9676 14.4346 24.6102L6.38216 16.4406H3.75076L13.1218 25.9464C14.2177 27.0306 15.9701 27.0247 17.066 25.9464L26.2554 16.4406H23.6474L15.7474 24.6102Z" fill="#017080"/>
</svg>
