<svg width="20" height="20" viewBox="0 0 20 20" fill="none" xmlns="http://www.w3.org/2000/svg">
<path d="M6.25 2.5C5.55859 2.5 5 3.05859 5 3.75V16.25C5 16.707 4.87891 17.1328 4.66406 17.5H16.875C17.9102 17.5 18.75 16.6602 18.75 15.625V3.75C18.75 3.05859 18.1914 2.5 17.5 2.5H6.25ZM2.5 18.75C1.12109 18.75 0 17.6289 0 16.25V6.25C0 4.87109 1.12109 3.75 2.5 3.75V5C1.80859 5 1.25 5.55859 1.25 6.25V16.25C1.25 16.9414 1.80859 17.5 2.5 17.5C3.19141 17.5 3.75 16.9414 3.75 16.25V3.75C3.75 2.37109 4.87109 1.25 6.25 1.25H17.5C18.8789 1.25 20 2.37109 20 3.75V15.625C20 17.3516 18.6016 18.75 16.875 18.75H2.5ZM15 4.375C15 4.03125 15.2812 3.75 15.625 3.75H16.875C17.2188 3.75 17.5 4.03125 17.5 4.375C17.5 4.71875 17.2188 5 16.875 5H15.625C15.2812 5 15 4.71875 15 4.375ZM15 6.875C15 6.53125 15.2812 6.25 15.625 6.25H16.875C17.2188 6.25 17.5 6.53125 17.5 6.875C17.5 7.21875 17.2188 7.5 16.875 7.5H15.625C15.2812 7.5 15 7.21875 15 6.875ZM15 9.375C15 9.03125 15.2812 8.75 15.625 8.75H16.875C17.2188 8.75 17.5 9.03125 17.5 9.375C17.5 9.71875 17.2188 10 16.875 10H15.625C15.2812 10 15 9.71875 15 9.375ZM6.25 11.875C6.25 11.5312 6.53125 11.25 6.875 11.25H16.875C17.2188 11.25 17.5 11.5312 17.5 11.875C17.5 12.2188 17.2188 12.5 16.875 12.5H6.875C6.53125 12.5 6.25 12.2188 6.25 11.875ZM6.25 14.375C6.25 14.0312 6.53125 13.75 6.875 13.75H16.875C17.2188 13.75 17.5 14.0312 17.5 14.375C17.5 14.7188 17.2188 15 16.875 15H6.875C6.53125 15 6.25 14.7188 6.25 14.375ZM7.5 8.75H12.5V5H7.5V8.75ZM6.25 4.6875C6.25 4.16797 6.66797 3.75 7.1875 3.75H12.8125C13.332 3.75 13.75 4.16797 13.75 4.6875V9.0625C13.75 9.58203 13.332 10 12.8125 10H7.1875C6.66797 10 6.25 9.58203 6.25 9.0625V4.6875Z" fill="#E60D2E"/>
</svg>
