<svg width="30" height="30" viewBox="0 0 30 30" fill="none" xmlns="http://www.w3.org/2000/svg">
<g clip-path="url(#clip0_705_16570)">
<path d="M23.502 5.75684C20.0596 5.13457 16.9453 6.75293 15.2988 9.375H14.0625C11.4727 9.375 9.375 7.27734 9.375 4.6875V0.884766C9.375 0.421875 8.95312 0 8.4375 0C7.92188 0 7.5 0.421875 7.5 0.884766V4.6875C7.5 8.31445 10.4355 11.25 14.0625 11.25H14.458C14.2266 12 14.0625 12.7734 14.0625 13.5938V16.875C14.0625 19.4637 11.9637 21.5625 9.375 21.5625H6.5625C2.93789 21.5625 0 24.5004 0 28.0723V28.957C0 29.4727 0.421875 29.8418 0.884766 29.8418C1.34766 29.8418 1.875 29.5781 1.875 29.0625V28.125C1.875 26.2277 3.00293 24.5947 4.62891 23.8547C5.28047 23.5544 6.05742 23.7375 6.58477 24.2136L10.2398 27.5464C12.1875 29.127 14.5957 30 17.1562 30C24.2344 30 30 24.2344 30 17.1562V13.8867C30 9.99023 27.334 6.45117 23.502 5.75684ZM22.0312 7.5C25.3945 7.5 28.125 10.2305 28.125 13.5938V17.1533C28.125 17.8635 28.0518 18.552 27.9199 19.2258C26.0889 20.1047 23.9279 19.6799 22.4854 18.1125C20.748 16.2246 18.252 15.5391 15.9375 16.1836V13.5938C15.9375 10.2305 18.668 7.5 22.0312 7.5ZM17.1562 28.125C15.0762 28.125 13.04 27.3996 11.465 26.1252L8.50781 23.4375H9.375C12.532 23.4375 15.1758 21.1963 15.7969 18.2227C17.5986 17.417 19.7004 17.8491 21.1066 19.3875C22.425 20.8154 24.1758 21.5701 25.9553 21.5701C26.3947 21.5701 26.7814 21.4969 27.2666 21.4017C25.6055 25.3477 21.7031 28.125 17.1562 28.125Z" fill="#017080"/>
</g>
<defs>
<clipPath id="clip0_705_16570">
<rect width="30" height="30" fill="white"/>
</clipPath>
</defs>
</svg>
