<svg width="20" height="20" viewBox="0 0 20 20" fill="none" xmlns="http://www.w3.org/2000/svg">
<path d="M10.6602 6.30859L10.6289 6.3125C10.875 6.34375 11.5195 6.46875 11.7578 6.53125C12.0898 6.62109 12.2891 6.96094 12.2031 7.29688C12.1133 7.62891 11.7695 7.82812 11.4375 7.73828C11.2578 7.69141 10.6602 7.57422 10.4688 7.54688C9.90234 7.45703 9.41797 7.52734 9.08984 7.67578C8.76172 7.82422 8.625 8.02344 8.59375 8.20703C8.5625 8.39453 8.58984 8.50391 8.62109 8.57031C8.65625 8.64453 8.72266 8.72656 8.85938 8.82031C9.16406 9.02734 9.625 9.16797 10.2227 9.35156L10.2422 9.35547C10.7461 9.51562 11.4492 9.71875 11.9414 10.043C12.207 10.2695 12.4453 10.5234 12.5938 10.8672C12.7461 11.2109 12.7773 11.5938 12.707 12.0039C12.582 12.7383 12.0977 13.2383 11.4766 13.5039C11.2266 13.6133 10.9492 13.6836 10.6602 13.7188V14.168C10.6602 14.5117 10.3789 14.793 10.0352 14.793C9.69141 14.793 9.41016 14.5117 9.41016 14.168V13.6914L9.40625 13.6875H9.40234C9.00391 13.625 8.35938 13.4023 7.95703 13.2656C7.87891 13.2383 7.80859 13.2148 7.75391 13.1953C7.42578 13.0898 7.25 12.6992 7.35938 12.4062C7.46875 12.0781 7.82031 11.9023 8.14844 12.0117C8.23047 12.0391 8.28516 12.0352 8.41406 12.1016C8.82422 12.2422 9.32031 12.4102 9.60156 12.4531C10.1875 12.5469 10.6641 12.4922 10.9844 12.3555C11.2852 12.2266 11.4336 12.0391 11.4766 11.793C11.5117 11.5781 11.4844 11.4492 11.4492 11.3633C11.4102 11.2773 11.3398 11.1875 11.207 11.0898C10.9102 10.875 10.457 10.7266 9.86328 10.5117L9.77734 10.5195C9.25781 10.3633 8.62891 10.1758 8.16016 9.85547C7.89453 9.67578 7.64844 9.4375 7.49219 9.10547C7.33203 8.76953 7.29297 8.39453 7.36328 7.99609C7.48047 7.30078 7.97656 6.80859 8.57422 6.53906C8.82812 6.42188 9.10938 6.34375 9.41016 6.29688V5.83203C9.41016 5.48828 9.69141 5.20703 10.0352 5.20703C10.3789 5.20703 10.6602 5.48828 10.6602 5.83203V6.30859ZM13.4023 1.78242C14.6914 1.54961 16.0742 1.93086 17.0703 2.92891C18.0703 3.92578 18.4492 5.30859 18.2188 6.59766C19.293 7.30859 20 8.58984 20 9.96484C20 11.4102 19.293 12.6562 18.2188 13.4023C18.4492 14.6914 18.0703 16.0742 17.0703 17.0703C16.0742 18.0703 14.6914 18.4492 13.4023 18.2188C12.6562 19.293 11.4102 20 10 20C8.58984 20 7.30859 19.293 6.59766 18.2188C5.30859 18.4492 3.92578 18.0703 2.92891 17.0703C1.93086 16.0742 1.54961 14.6914 1.78242 13.4023C0.70625 12.6562 0 11.4102 0 9.96484C0 8.58984 0.70625 7.30859 1.78242 6.59766C1.54961 5.30859 1.93086 3.92578 2.92891 2.92891C3.92578 1.93086 5.30859 1.54961 6.59766 1.78242C7.30859 0.70625 8.58984 0 9.96484 0C11.4102 0 12.6562 0.70625 13.4023 1.78242ZM7.20312 3.24531L6.70703 3.09375C5.71484 2.78906 4.59375 3.03008 3.81289 3.81289C3.03008 4.59375 2.78906 5.71484 3.09375 6.70703L3.24531 7.20312L2.78906 7.44531C1.87227 7.92969 1.25 8.89453 1.25 9.96484C1.25 11.1055 1.87227 12.0352 2.78906 12.5547L3.24531 12.7969L3.09375 13.293C2.78906 14.2852 3.03008 15.4023 3.81289 16.1875C4.59375 16.9688 5.71484 17.2109 6.70703 16.9062L7.20312 16.7539L7.44531 17.2109C7.92969 18.1289 8.89453 18.75 10 18.75C11.1055 18.75 12.0352 18.1289 12.5547 17.2109L12.7969 16.7539L13.293 16.9062C14.2852 17.2109 15.4023 16.9688 16.1875 16.1875C16.9688 15.4023 17.2109 14.2852 16.9062 13.293L16.7539 12.7969L17.2109 12.5547C18.1289 12.0352 18.75 11.1055 18.75 9.96484C18.75 8.89453 18.1289 7.92969 17.2109 7.44531L16.7539 7.20312L16.9062 6.70703C17.2109 5.71484 16.9688 4.59375 16.1875 3.8125C15.4062 3.02969 14.2852 2.78906 13.293 3.09375L12.7969 3.24531L12.5547 2.78906C12.0352 1.87227 11.1055 1.21484 10 1.21484C8.89453 1.21484 7.92969 1.87227 7.44531 2.78906L7.20312 3.24531Z" fill="#E60D2E"/>
</svg>
