<svg width="19" height="19" viewBox="0 0 19 19" fill="none" xmlns="http://www.w3.org/2000/svg">
<path d="M0.833008 2.70834C0.833008 1.6728 1.67246 0.833344 2.70801 0.833344H6.45801C7.49316 0.833344 8.33301 1.6728 8.33301 2.70834V6.45834C8.33301 7.4935 7.49316 8.33334 6.45801 8.33334H2.70801C1.67246 8.33334 0.833008 7.4935 0.833008 6.45834V2.70834ZM2.08301 2.70834V6.45834C2.08301 6.80209 2.3627 7.08334 2.70801 7.08334H6.45801C6.80176 7.08334 7.08301 6.80209 7.08301 6.45834V2.70834C7.08301 2.36303 6.80176 2.08334 6.45801 2.08334H2.70801C2.3627 2.08334 2.08301 2.36303 2.08301 2.70834ZM0.833008 12.7083C0.833008 11.6732 1.67246 10.8333 2.70801 10.8333H6.45801C7.49316 10.8333 8.33301 11.6732 8.33301 12.7083V16.4583C8.33301 17.4935 7.49316 18.3333 6.45801 18.3333H2.70801C1.67246 18.3333 0.833008 17.4935 0.833008 16.4583V12.7083ZM2.08301 12.7083V16.4583C2.08301 16.8021 2.3627 17.0833 2.70801 17.0833H6.45801C6.80176 17.0833 7.08301 16.8021 7.08301 16.4583V12.7083C7.08301 12.3646 6.80176 12.0833 6.45801 12.0833H2.70801C2.3627 12.0833 2.08301 12.3646 2.08301 12.7083ZM16.458 0.833344C17.4932 0.833344 18.333 1.6728 18.333 2.70834V6.45834C18.333 7.4935 17.4932 8.33334 16.458 8.33334H12.708C11.6729 8.33334 10.833 7.4935 10.833 6.45834V2.70834C10.833 1.6728 11.6729 0.833344 12.708 0.833344H16.458ZM16.458 2.08334H12.708C12.3643 2.08334 12.083 2.36303 12.083 2.70834V6.45834C12.083 6.80209 12.3643 7.08334 12.708 7.08334H16.458C16.8018 7.08334 17.083 6.80209 17.083 6.45834V2.70834C17.083 2.36303 16.8018 2.08334 16.458 2.08334ZM10.833 12.7083C10.833 11.6732 11.6729 10.8333 12.708 10.8333H16.458C17.4932 10.8333 18.333 11.6732 18.333 12.7083V16.4583C18.333 17.4935 17.4932 18.3333 16.458 18.3333H12.708C11.6729 18.3333 10.833 17.4935 10.833 16.4583V12.7083ZM12.083 12.7083V16.4583C12.083 16.8021 12.3643 17.0833 12.708 17.0833H16.458C16.8018 17.0833 17.083 16.8021 17.083 16.4583V12.7083C17.083 12.3646 16.8018 12.0833 16.458 12.0833H12.708C12.3643 12.0833 12.083 12.3646 12.083 12.7083Z" fill="#1A1A1A"/>
</svg>
