<svg width="30" height="30" viewBox="0 0 30 30" fill="none" xmlns="http://www.w3.org/2000/svg">
<path d="M27.6797 2.07949C27.5847 1.84992 27.4018 1.66705 27.1723 1.57207C27.0577 1.52469 26.9351 1.5 26.8131 1.5H19.3125C18.7969 1.5 18.375 1.91953 18.375 2.4375C18.375 2.95547 18.7969 3.375 19.3125 3.375H24.5496L18.409 9.51562C16.623 8.02148 14.3203 7.125 11.8125 7.125C6.11719 7.125 1.5 11.7422 1.5 17.4375C1.5 23.1328 6.11719 27.75 11.8125 27.75C17.5078 27.75 22.125 23.1328 22.125 17.4375C22.125 14.9273 21.2262 12.6281 19.7355 10.8398L25.875 4.70098V9.9375C25.875 10.4531 26.2969 10.875 26.8125 10.875C27.3281 10.875 27.75 10.4531 27.75 9.9375V2.4375C27.75 2.31563 27.7266 2.19434 27.6797 2.07949ZM20.25 17.4375C20.25 22.0898 16.4648 25.875 11.8125 25.875C7.16016 25.875 3.375 22.0898 3.375 17.4375C3.375 12.7852 7.16016 9 11.8125 9C16.4648 9 20.25 12.7852 20.25 17.4375Z" fill="#017080"/>
</svg>
